<?xml version="1.0" standalone="no"?>
<!DOCTYPE svg PUBLIC "-//W3C//DTD SVG 20010904//EN"
 "http://www.w3.org/TR/2001/REC-SVG-20010904/DTD/svg10.dtd">
<svg version="1.0" xmlns="http://www.w3.org/2000/svg"
 width="96.000000pt" height="96.000000pt" viewBox="0 0 96.000000 96.000000"
 preserveAspectRatio="xMidYMid meet">

<g transform="translate(0.000000,96.000000) scale(0.100000,-0.100000)"
fill="#000000" stroke="none">
<path d="M395 791 c-130 -60 -165 -225 -70 -329 l33 -36 -44 -28 c-54 -34
-100 -96 -119 -161 -22 -74 -20 -87 13 -87 25 0 28 5 40 52 11 49 55 117 79
125 6 2 43 -26 82 -63 l71 -66 71 66 c39 37 76 65 82 63 24 -8 68 -76 79 -125
12 -47 15 -52 40 -52 33 0 35 13 13 87 -19 65 -65 127 -119 161 l-44 28 33 36
c71 77 72 195 2 275 -61 69 -161 92 -242 54z m155 -61 c45 -23 80 -80 80 -130
0 -76 -74 -150 -151 -150 -73 0 -149 76 -149 150 0 48 35 107 78 129 48 26 93
26 142 1z m-4 -350 l28 -11 -47 -47 -47 -47 -47 47 -47 47 25 10 c32 13 101
13 135 1z"/>
</g>
</svg>
