<?xml version="1.0" encoding="UTF-8"?>
<!DOCTYPE svg PUBLIC "-//W3C//DTD SVG 1.1//EN" "http://www.w3.org/Graphics/SVG/1.1/DTD/svg11.dtd">
<svg xmlns="http://www.w3.org/2000/svg" version="1.1" width="96px" height="96px" style="shape-rendering:geometricPrecision; text-rendering:geometricPrecision; image-rendering:optimizeQuality; fill-rule:evenodd; clip-rule:evenodd" xmlns:xlink="http://www.w3.org/1999/xlink">
<g><path style="opacity:0.918" fill="#000000" d="M 41.5,8.5 C 55.711,6.40513 62.711,12.4051 62.5,26.5C 67.5,26.5 72.5,26.5 77.5,26.5C 78.8333,46.5 80.1667,66.5 81.5,86.5C 58.8333,86.5 36.1667,86.5 13.5,86.5C 14.8333,66.5 16.1667,46.5 17.5,26.5C 22.5,26.5 27.5,26.5 32.5,26.5C 31.2951,18.2424 34.2951,12.2424 41.5,8.5 Z M 43.5,15.5 C 51.7888,14.4536 56.1221,18.1203 56.5,26.5C 50.5,26.5 44.5,26.5 38.5,26.5C 38.5262,22.0194 40.1929,18.3527 43.5,15.5 Z M 23.5,32.5 C 26.5,32.5 29.5,32.5 32.5,32.5C 32.5,35.5 32.5,38.5 32.5,41.5C 34.5,41.5 36.5,41.5 38.5,41.5C 38.5,38.5 38.5,35.5 38.5,32.5C 44.5,32.5 50.5,32.5 56.5,32.5C 56.5,35.5 56.5,38.5 56.5,41.5C 58.5,41.5 60.5,41.5 62.5,41.5C 62.5,38.5 62.5,35.5 62.5,32.5C 65.5,32.5 68.5,32.5 71.5,32.5C 72.1667,48.5 72.8333,64.5 73.5,80.5C 56.1667,80.5 38.8333,80.5 21.5,80.5C 22.1667,64.5 22.8333,48.5 23.5,32.5 Z"/></g>
</svg>
