<svg version="1.1" id="Layer_1" xmlns="http://www.w3.org/2000/svg" xmlns:xlink="http://www.w3.org/1999/xlink" x="0px" y="0px"
	 width="100%" viewBox="0 0 100 100" enable-background="new 0 0 100 100" xml:space="preserve">
<path fill="#000000" opacity="1.000000" stroke="none" 
	d="
M101.000000,38.000000 
	C101.000000,59.333328 101.000000,80.166656 101.000000,100.999985 
	C67.666679,100.999992 34.333366,100.999992 1.000036,101.000000 
	C1.000024,67.666695 1.000024,34.333385 1.000012,1.000059 
	C34.333298,1.000039 67.666595,1.000039 100.999947,1.000020 
	C101.000000,13.166667 101.000000,25.333334 101.000000,38.000000 
M28.821795,93.706795 
	C32.375431,90.483505 36.343620,87.594612 39.319645,83.905380 
	C40.975670,81.852486 42.209026,80.919556 44.778137,80.947655 
	C55.933216,81.069672 67.090446,81.020149 78.246788,80.991013 
	C83.391792,80.977585 86.979950,77.426353 86.989845,72.313461 
	C87.018532,57.493805 87.015839,42.674026 86.991722,27.854351 
	C86.982849,22.405518 83.488152,19.009392 77.915100,19.005705 
	C56.601357,18.991600 35.287594,18.989355 13.973859,19.007145 
	C8.323034,19.011862 5.015551,22.319223 5.007243,27.965399 
	C4.985681,42.618568 4.988567,57.271809 5.005834,71.924988 
	C5.012407,77.503784 8.399265,80.949196 13.865066,80.996094 
	C16.502338,81.018723 19.139965,81.000000 23.400448,81.000000 
	C20.800180,86.119286 18.702667,90.248772 15.996934,95.575699 
	C21.004539,94.913383 24.526041,94.447624 28.821795,93.706795 
M86.318207,20.032475 
	C91.050697,23.327694 90.754906,28.594440 90.884224,33.284039 
	C91.226006,45.677650 91.000000,58.086926 91.000000,70.943855 
	C94.976929,68.416214 97.207207,65.859161 97.107910,61.109955 
	C96.808754,46.801628 97.009857,32.483044 96.995171,18.168482 
	C96.989250,12.401530 93.557175,9.006845 87.735748,9.004011 
	C66.763229,8.993802 45.789185,9.134562 24.819344,8.897427 
	C20.075844,8.843784 17.490917,10.978244 15.097184,15.000000 
	C17.118795,15.000000 18.725039,15.000000 20.331284,15.000000 
	C37.808384,15.000001 55.289806,14.788456 72.759628,15.145098 
	C77.265213,15.237079 82.738846,14.522446 86.318207,20.032475 
z"/>
<path fill="#FFFFFF" opacity="1.000000" stroke="none" 
	d="
M28.434669,93.844330 
	C24.526041,94.447624 21.004539,94.913383 15.996934,95.575699 
	C18.702667,90.248772 20.800180,86.119286 23.400448,81.000000 
	C19.139965,81.000000 16.502338,81.018723 13.865066,80.996094 
	C8.399265,80.949196 5.012407,77.503784 5.005834,71.924988 
	C4.988567,57.271809 4.985681,42.618568 5.007243,27.965399 
	C5.015551,22.319223 8.323034,19.011862 13.973859,19.007145 
	C35.287594,18.989355 56.601357,18.991600 77.915100,19.005705 
	C83.488152,19.009392 86.982849,22.405518 86.991722,27.854351 
	C87.015839,42.674026 87.018532,57.493805 86.989845,72.313461 
	C86.979950,77.426353 83.391792,80.977585 78.246788,80.991013 
	C67.090446,81.020149 55.933216,81.069672 44.778137,80.947655 
	C42.209026,80.919556 40.975670,81.852486 39.319645,83.905380 
	C36.343620,87.594612 32.375431,90.483505 28.434669,93.844330 
z"/>
<path fill="#FFFFFF" opacity="1.000000" stroke="none" 
	d="
M85.925049,19.990360 
	C82.738846,14.522446 77.265213,15.237079 72.759628,15.145098 
	C55.289806,14.788456 37.808384,15.000001 20.331284,15.000000 
	C18.725039,15.000000 17.118795,15.000000 15.097184,15.000000 
	C17.490917,10.978244 20.075844,8.843784 24.819344,8.897427 
	C45.789185,9.134562 66.763229,8.993802 87.735748,9.004011 
	C93.557175,9.006845 96.989250,12.401530 96.995171,18.168482 
	C97.009857,32.483044 96.808754,46.801628 97.107910,61.109955 
	C97.207207,65.859161 94.976929,68.416214 91.000000,70.943855 
	C91.000000,58.086926 91.226006,45.677650 90.884224,33.284039 
	C90.754906,28.594440 91.050697,23.327694 85.925049,19.990360 
z"/>
</svg>