<?xml version="1.0" encoding="UTF-8"?>
<!DOCTYPE svg PUBLIC "-//W3C//DTD SVG 1.1//EN" "http://www.w3.org/Graphics/SVG/1.1/DTD/svg11.dtd">
<svg xmlns="http://www.w3.org/2000/svg" version="1.1" width="100px" height="100px" style="shape-rendering:geometricPrecision; text-rendering:geometricPrecision; image-rendering:optimizeQuality; fill-rule:evenodd; clip-rule:evenodd" xmlns:xlink="http://www.w3.org/1999/xlink">
<g><path style="opacity:0.944" fill="#000000" d="M 12.5,7.5 C 37.1689,7.33336 61.8356,7.50003 86.5,8C 88.3333,9.16667 89.8333,10.6667 91,12.5C 91.6667,37.1667 91.6667,61.8333 91,86.5C 89.8333,88.3333 88.3333,89.8333 86.5,91C 61.8333,91.6667 37.1667,91.6667 12.5,91C 10.6667,89.8333 9.16667,88.3333 8,86.5C 7.33333,61.8333 7.33333,37.1667 8,12.5C 9.36569,10.6383 10.8657,8.97167 12.5,7.5 Z M 17.5,11.5 C 38.8359,11.3334 60.1693,11.5 81.5,12C 83.3289,12.2735 84.8289,13.1068 86,14.5C 87.6344,36.7696 87.9677,59.103 87,81.5C 86.5,84.6667 84.6667,86.5 81.5,87C 76.1771,87.4994 70.8437,87.666 65.5,87.5C 65.5,78.1667 65.5,68.8333 65.5,59.5C 68.4475,59.7771 71.2809,59.4438 74,58.5C 74.9003,54.1658 75.7336,49.8324 76.5,45.5C 72.8333,45.5 69.1667,45.5 65.5,45.5C 65.2865,43.8561 65.6198,42.3561 66.5,41C 69.3926,39.8512 72.3926,39.3512 75.5,39.5C 75.797,35.2325 75.4637,31.0659 74.5,27C 57.1018,21.2515 48.7684,27.4181 49.5,45.5C 47.5,45.5 45.5,45.5 43.5,45.5C 43.5,50.1667 43.5,54.8333 43.5,59.5C 45.5,59.5 47.5,59.5 49.5,59.5C 49.5,68.8333 49.5,78.1667 49.5,87.5C 38.8281,87.6665 28.1615,87.4998 17.5,87C 15.6711,86.7265 14.1711,85.8932 13,84.5C 11.3656,62.2304 11.0323,39.897 12,17.5C 12.6831,14.3212 14.5164,12.3212 17.5,11.5 Z M 59.5,30.5 C 63.1817,30.3347 66.8484,30.5014 70.5,31C 71.3802,32.3561 71.7135,33.8561 71.5,35.5C 67.9929,34.9935 64.8263,35.6602 62,37.5C 61.5012,41.4862 61.3345,45.4862 61.5,49.5C 64.5719,49.1826 67.5719,49.5159 70.5,50.5C 69.6906,52.0709 69.3573,53.7376 69.5,55.5C 66.8333,55.5 64.1667,55.5 61.5,55.5C 61.5,66.1667 61.5,76.8333 61.5,87.5C 58.8333,87.5 56.1667,87.5 53.5,87.5C 53.5,76.8333 53.5,66.1667 53.5,55.5C 51.5,55.5 49.5,55.5 47.5,55.5C 47.5,53.5 47.5,51.5 47.5,49.5C 49.5,49.5 51.5,49.5 53.5,49.5C 53.4246,45.1033 53.9246,40.77 55,36.5C 55.8041,33.8541 57.3041,31.8541 59.5,30.5 Z"/></g>
</svg>
