<?xml version="1.0" encoding="UTF-8"?>
<!DOCTYPE svg PUBLIC "-//W3C//DTD SVG 1.1//EN" "http://www.w3.org/Graphics/SVG/1.1/DTD/svg11.dtd">
<svg xmlns="http://www.w3.org/2000/svg" version="1.1" width="100px" height="100px" style="shape-rendering:geometricPrecision; text-rendering:geometricPrecision; image-rendering:optimizeQuality; fill-rule:evenodd; clip-rule:evenodd" xmlns:xlink="http://www.w3.org/1999/xlink">
<g><path style="opacity:0.881" fill="#000000" d="M 33.5,5.5 C 52.4653,3.06168 65.9653,10.395 74,27.5C 77.1064,39.0329 75.6064,49.8662 69.5,60C 77.5,68 85.5,76 93.5,84C 90.3333,87.1667 87.1667,90.3333 84,93.5C 76.1667,85.6667 68.3333,77.8333 60.5,70C 56.8354,70.6448 53.1687,71.6448 49.5,73C 28.4094,76.0481 14.5761,67.5481 8,47.5C 5.07436,26.3225 13.5744,12.3225 33.5,5.5 Z M 34.5,14.5 C 49.779,12.3022 60.279,18.3022 66,32.5C 68.6929,47.7929 62.8595,58.2929 48.5,64C 33.2071,66.6929 22.7071,60.8595 17,46.5C 14.5236,31.1737 20.3569,20.5071 34.5,14.5 Z"/></g>
</svg>
