<?xml version="1.0" encoding="UTF-8"?>
<!DOCTYPE svg PUBLIC "-//W3C//DTD SVG 1.1//EN" "http://www.w3.org/Graphics/SVG/1.1/DTD/svg11.dtd">
<svg xmlns="http://www.w3.org/2000/svg" version="1.1" width="100px" height="100px" style="shape-rendering:geometricPrecision; text-rendering:geometricPrecision; image-rendering:optimizeQuality; fill-rule:evenodd; clip-rule:evenodd" xmlns:xlink="http://www.w3.org/1999/xlink">
<g><path style="opacity:0.878" fill="#000000" d="M 24.5,5.5 C 41.17,5.3334 57.8367,5.50007 74.5,6C 83.9737,8.80705 90.1404,14.9737 93,24.5C 93.6667,41.1667 93.6667,57.8333 93,74.5C 90.1667,84 84,90.1667 74.5,93C 57.8333,93.6667 41.1667,93.6667 24.5,93C 14.9737,90.1404 8.80705,83.9737 6,74.5C 5.33333,57.8333 5.33333,41.1667 6,24.5C 9.01741,14.9839 15.1841,8.65054 24.5,5.5 Z M 31.5,9.5 C 45.545,9.11226 59.545,9.61226 73.5,11C 83.122,14.3908 88.2887,21.2241 89,31.5C 89.6667,43.5 89.6667,55.5 89,67.5C 87.8333,80.6667 80.6667,87.8333 67.5,89C 55.5,89.6667 43.5,89.6667 31.5,89C 18.3333,87.8333 11.1667,80.6667 10,67.5C 9.11231,53.4586 9.44564,39.4586 11,25.5C 14.614,15.9531 21.4474,10.6198 31.5,9.5 Z M 43.5,32.5 C 63.0455,31.8766 69.8788,40.8766 64,59.5C 57.8184,66.4426 50.3184,68.2759 41.5,65C 32.1209,58.4619 29.9543,49.9619 35,39.5C 37.4412,36.5464 40.2745,34.2131 43.5,32.5 Z"/></g>
<g><path style="opacity:0.828" fill="#000000" d="M 70.5,21.5 C 77.1584,20.3445 79.1584,22.8445 76.5,29C 69.7496,30.4689 67.7496,27.9689 70.5,21.5 Z"/></g>
<g><path style="opacity:0.79" fill="#000000" d="M 42.5,27.5 C 56.0927,24.961 65.5927,29.961 71,42.5C 74.0738,56.0772 69.2404,65.5772 56.5,71C 42.9228,74.0738 33.4228,69.2404 28,56.5C 25.4312,42.9705 30.2645,33.3038 42.5,27.5 Z M 43.5,32.5 C 40.2745,34.2131 37.4412,36.5464 35,39.5C 29.9543,49.9619 32.1209,58.4619 41.5,65C 50.3184,68.2759 57.8184,66.4426 64,59.5C 69.8788,40.8766 63.0455,31.8766 43.5,32.5 Z"/></g>
</svg>
