<?xml version="1.0" standalone="no"?>
<!DOCTYPE svg PUBLIC "-//W3C//DTD SVG 20010904//EN"
 "http://www.w3.org/TR/2001/REC-SVG-20010904/DTD/svg10.dtd">
<svg version="1.0" xmlns="http://www.w3.org/2000/svg"
 width="177.000000pt" height="168.000000pt" viewBox="0 0 177.000000 168.000000"
 preserveAspectRatio="xMidYMid meet">

<g transform="translate(0.000000,168.000000) scale(0.100000,-0.100000)"
fill="#000000" stroke="none">
<path d="M1360 1649 c-156 -79 -334 -327 -500 -699 l-33 -75 -14 65 c-32 155
-89 274 -173 361 l-56 58 -59 -29 c-33 -15 -107 -45 -165 -65 -205 -73 -283
-124 -327 -213 -23 -48 -28 -69 -27 -135 0 -71 4 -84 44 -163 45 -88 78 -124
114 -124 58 0 60 52 6 136 -55 83 -60 119 -26 188 37 76 92 121 224 183 137
64 131 67 197 -72 104 -217 101 -378 -15 -769 -35 -121 -50 -143 -120 -178
-60 -29 -86 -68 -46 -68 20 0 22 -4 18 -26 -4 -22 -2 -25 14 -21 11 3 80 17
154 32 334 64 373 77 397 133 17 40 13 48 -16 32 -20 -10 -21 -9 -15 14 l6 25
-79 -34 c-43 -18 -91 -36 -107 -39 l-29 -7 7 43 c13 85 87 370 118 456 l32 87
12 -73 c17 -96 44 -150 105 -207 91 -85 202 -114 375 -96 167 17 254 51 321
123 52 58 68 105 67 203 -1 148 -62 289 -182 416 -84 90 -142 119 -239 119
-90 0 -163 -26 -235 -82 l-52 -41 24 39 c51 85 123 184 175 242 69 76 121 102
203 102 116 0 148 36 96 111 -60 88 -96 96 -194 48z m55 -552 c78 -44 119
-166 113 -336 -3 -96 -6 -111 -34 -161 -54 -96 -149 -140 -238 -110 -76 25
-126 139 -126 290 0 149 49 264 134 315 51 31 99 31 151 2z"/>
</g>
</svg>
