<?xml version="1.0" standalone="no"?>
<!DOCTYPE svg PUBLIC "-//W3C//DTD SVG 20010904//EN"
 "http://www.w3.org/TR/2001/REC-SVG-20010904/DTD/svg10.dtd">
<svg version="1.0" xmlns="http://www.w3.org/2000/svg"
 width="100.000000pt" height="100.000000pt" viewBox="0 0 100.000000 100.000000"
 preserveAspectRatio="xMidYMid meet">

<g transform="translate(0.000000,100.000000) scale(0.100000,-0.100000)"
fill="#000000" stroke="none">
<path d="M255 810 c-145 -17 -170 -38 -186 -161 -14 -100 -6 -307 13 -364 28
-83 96 -100 408 -100 312 0 380 17 408 100 19 57 27 285 13 375 -14 90 -44
127 -112 141 -64 13 -451 19 -544 9z m446 -40 c53 -5 108 -15 122 -21 42 -19
52 -65 52 -244 -1 -181 -11 -236 -50 -253 -50 -23 -216 -35 -405 -29 -202 6
-256 15 -282 46 -27 34 -41 153 -35 291 6 138 16 173 56 190 64 26 365 37 542
20z"/>
<path d="M380 500 l0 -162 23 14 c12 8 73 43 135 78 61 35 112 67 112 70 0 3
-51 35 -112 70 -62 35 -123 70 -135 78 l-23 14 0 -162z m180 10 c17 -12 20 -9
-77 -65 l-63 -36 0 91 0 91 63 -36 c34 -19 69 -40 77 -45z"/>
</g>
</svg>
